# xmcd
#
# Track frame offsets: 
#        183
#        11858
#        22708
#        34755
#        47443
#        61703
#        76433
#        93448
#        106668
#        119595
#        132068
#        143880
#        154568
#        170195
#        183663
#        197715
#
# Disc length: 2839 seconds
#
# Revision: 0
# Processed by: cddbd v1.5.1PL0 Copyright (c) Steve Scherf et al.
# Submitted via: ExactAudioCopy v0.95a5
#
DISCID=cb0b1510
DTITLE=Carl Perkins - The legendary Carl Perkins
DYEAR=1991
DGENRE=Blues
TTITLE0=Born to boogie
TTITLE1=I can feel it
TTITLE2=Don't get off gettin' it on
TTITLE3=Take me back
TTITLE4=Redneck
TTITLE5=The hurt put on by you
TTITLE6=Sweeter than candy
TTITLE7=Boppin' the blues
TTITLE8=We did in '54
TTITLE9=Mama
TTITLE10=Standing in the need of love
TTITLE11=What am I living for
TTITLE12=21
TTITLE13=Country soul
TTITLE14=Georgia courtroom
TTITLE15=I didn't want to fall in love again
EXTD=
EXTT0=
EXTT1=
EXTT2=
EXTT3=
EXTT4=
EXTT5=
EXTT6=
EXTT7=
EXTT8=
EXTT9=
EXTT10=
EXTT11=
EXTT12=
EXTT13=
EXTT14=
EXTT15=
PLAYORDER=
